<svg width="147" height="46" viewBox="0 0 147 46" fill="none" xmlns="http://www.w3.org/2000/svg">
<g opacity="0.6">
<rect x="1" y="5" width="25" height="38" rx="1" stroke="black" stroke-width="2"/>
<line x1="6" y1="34" x2="21" y2="34" stroke="black" stroke-width="2"/>
<line x1="6" y1="28" x2="21" y2="28" stroke="black" stroke-width="2"/>
<path d="M8.616 12.4C9.18133 12.4 9.656 12.584 10.04 12.952C10.424 13.32 10.616 13.7893 10.616 14.36C10.616 14.9307 10.424 15.4 10.04 15.768C9.656 16.136 9.18133 16.32 8.616 16.32H7.872V18H6.44V12.4H8.616ZM8.616 14.96C8.776 14.96 8.90933 14.904 9.016 14.792C9.128 14.68 9.184 14.536 9.184 14.36C9.184 14.184 9.128 14.0427 9.016 13.936C8.90933 13.824 8.776 13.768 8.616 13.768H7.872V14.96H8.616ZM13.4544 12.4C14.2277 12.4 14.873 12.6693 15.3904 13.208C15.913 13.7413 16.1744 14.4053 16.1744 15.2C16.1744 15.9947 15.913 16.6613 15.3904 17.2C14.873 17.7333 14.2277 18 13.4544 18H11.1744V12.4H13.4544ZM13.4544 16.616C13.8437 16.616 14.161 16.488 14.4064 16.232C14.6517 15.9707 14.7744 15.6267 14.7744 15.2C14.7744 14.7733 14.6517 14.432 14.4064 14.176C14.161 13.9147 13.8437 13.784 13.4544 13.784H12.6464V16.616H13.4544ZM20.2784 13.784H18.2704V14.696H20.2384V16.08H18.2704V18H16.8384V12.4H20.2784V13.784Z" fill="black"/>
</g>
<path opacity="0.6" d="M54.252 16.452C53.4 17.64 52.206 18.234 50.67 18.234C49.134 18.234 47.94 17.64 47.088 16.452C46.236 15.264 45.81 13.68 45.81 11.7C45.81 9.72 46.236 8.136 47.088 6.948C47.94 5.76 49.134 5.166 50.67 5.166C52.206 5.166 53.4 5.76 54.252 6.948C55.104 8.136 55.53 9.72 55.53 11.7C55.53 13.68 55.104 15.264 54.252 16.452ZM48.312 15.318C48.864 16.17 49.65 16.596 50.67 16.596C51.69 16.596 52.476 16.17 53.028 15.318C53.592 14.466 53.874 13.26 53.874 11.7C53.874 10.14 53.592 8.934 53.028 8.082C52.476 7.218 51.69 6.786 50.67 6.786C49.65 6.786 48.864 7.212 48.312 8.064C47.76 8.916 47.484 10.128 47.484 11.7C47.484 13.26 47.76 14.466 48.312 15.318ZM59.5503 5.4H60.9903V18H59.3343V7.2L56.6523 7.992L56.2383 6.552L59.5503 5.4ZM64.5803 18.198C64.2563 18.198 63.9803 18.084 63.7523 17.856C63.5243 17.628 63.4103 17.352 63.4103 17.028C63.4103 16.704 63.5243 16.428 63.7523 16.2C63.9803 15.972 64.2563 15.858 64.5803 15.858C64.9163 15.858 65.1923 15.972 65.4083 16.2C65.6363 16.428 65.7503 16.704 65.7503 17.028C65.7503 17.352 65.6363 17.628 65.4083 17.856C65.1923 18.084 64.9163 18.198 64.5803 18.198ZM75.4864 16.452C74.6344 17.64 73.4404 18.234 71.9044 18.234C70.3684 18.234 69.1744 17.64 68.3224 16.452C67.4704 15.264 67.0444 13.68 67.0444 11.7C67.0444 9.72 67.4704 8.136 68.3224 6.948C69.1744 5.76 70.3684 5.166 71.9044 5.166C73.4404 5.166 74.6344 5.76 75.4864 6.948C76.3384 8.136 76.7644 9.72 76.7644 11.7C76.7644 13.68 76.3384 15.264 75.4864 16.452ZM69.5464 15.318C70.0984 16.17 70.8844 16.596 71.9044 16.596C72.9244 16.596 73.7104 16.17 74.2624 15.318C74.8264 14.466 75.1084 13.26 75.1084 11.7C75.1084 10.14 74.8264 8.934 74.2624 8.082C73.7104 7.218 72.9244 6.786 71.9044 6.786C70.8844 6.786 70.0984 7.212 69.5464 8.064C68.9944 8.916 68.7184 10.128 68.7184 11.7C68.7184 13.26 68.9944 14.466 69.5464 15.318ZM87.6343 14.04V15.606H86.1043V18H84.4303V15.606H78.0043V14.04L82.5223 5.4H84.3223L79.8043 14.04H84.4303V10.476H86.1043V14.04H87.6343ZM90.1917 18.198C89.8677 18.198 89.5917 18.084 89.3637 17.856C89.1357 17.628 89.0217 17.352 89.0217 17.028C89.0217 16.704 89.1357 16.428 89.3637 16.2C89.5917 15.972 89.8677 15.858 90.1917 15.858C90.5277 15.858 90.8037 15.972 91.0197 16.2C91.2477 16.428 91.3617 16.704 91.3617 17.028C91.3617 17.352 91.2477 17.628 91.0197 17.856C90.8037 18.084 90.5277 18.198 90.1917 18.198ZM93.0386 18V16.632L97.4846 12.096C98.6726 10.908 99.2666 9.888 99.2666 9.036C99.2666 8.328 99.0506 7.776 98.6186 7.38C98.1866 6.984 97.6586 6.786 97.0346 6.786C95.8466 6.786 94.9826 7.35 94.4426 8.478L93.0386 7.65C93.4346 6.834 93.9806 6.216 94.6766 5.796C95.3846 5.376 96.1646 5.166 97.0166 5.166C98.0726 5.166 98.9906 5.514 99.7706 6.21C100.551 6.906 100.941 7.842 100.941 9.018C100.941 10.29 100.191 11.676 98.6906 13.176L95.4686 16.38H101.175V18H93.0386ZM110.959 16.452C110.107 17.64 108.913 18.234 107.377 18.234C105.841 18.234 104.647 17.64 103.795 16.452C102.943 15.264 102.517 13.68 102.517 11.7C102.517 9.72 102.943 8.136 103.795 6.948C104.647 5.76 105.841 5.166 107.377 5.166C108.913 5.166 110.107 5.76 110.959 6.948C111.811 8.136 112.237 9.72 112.237 11.7C112.237 13.68 111.811 15.264 110.959 16.452ZM105.019 15.318C105.571 16.17 106.357 16.596 107.377 16.596C108.397 16.596 109.183 16.17 109.735 15.318C110.299 14.466 110.581 13.26 110.581 11.7C110.581 10.14 110.299 8.934 109.735 8.082C109.183 7.218 108.397 6.786 107.377 6.786C106.357 6.786 105.571 7.212 105.019 8.064C104.467 8.916 104.191 10.128 104.191 11.7C104.191 13.26 104.467 14.466 105.019 15.318ZM113.464 18V16.632L117.91 12.096C119.098 10.908 119.692 9.888 119.692 9.036C119.692 8.328 119.476 7.776 119.044 7.38C118.612 6.984 118.084 6.786 117.46 6.786C116.272 6.786 115.408 7.35 114.868 8.478L113.464 7.65C113.86 6.834 114.406 6.216 115.102 5.796C115.81 5.376 116.59 5.166 117.442 5.166C118.498 5.166 119.416 5.514 120.196 6.21C120.976 6.906 121.366 7.842 121.366 9.018C121.366 10.29 120.616 11.676 119.116 13.176L115.894 16.38H121.6V18H113.464ZM122.957 18V16.632L127.403 12.096C128.591 10.908 129.185 9.888 129.185 9.036C129.185 8.328 128.969 7.776 128.537 7.38C128.105 6.984 127.577 6.786 126.953 6.786C125.765 6.786 124.901 7.35 124.361 8.478L122.957 7.65C123.353 6.834 123.899 6.216 124.595 5.796C125.303 5.376 126.083 5.166 126.935 5.166C127.991 5.166 128.909 5.514 129.689 6.21C130.469 6.906 130.859 7.842 130.859 9.018C130.859 10.29 130.109 11.676 128.609 13.176L125.387 16.38H131.093V18H122.957ZM143.393 9V10.512H139.055V18H137.489V9H143.393ZM144.121 18.198C143.797 18.198 143.521 18.084 143.293 17.856C143.065 17.628 142.951 17.352 142.951 17.028C142.951 16.704 143.065 16.428 143.293 16.2C143.521 15.972 143.797 15.858 144.121 15.858C144.457 15.858 144.733 15.972 144.949 16.2C145.177 16.428 145.291 16.704 145.291 17.028C145.291 17.352 145.177 17.628 144.949 17.856C144.733 18.084 144.457 18.198 144.121 18.198ZM50.922 28.4C52.086 28.4 53.052 28.79 53.82 29.57C54.6 30.338 54.99 31.298 54.99 32.45C54.99 33.59 54.6 34.55 53.82 35.33C53.052 36.11 52.086 36.5 50.922 36.5H48.024V41H46.35V28.4H50.922ZM50.922 34.934C51.618 34.934 52.194 34.7 52.65 34.232C53.106 33.752 53.334 33.158 53.334 32.45C53.334 31.73 53.106 31.136 52.65 30.668C52.194 30.2 51.618 29.966 50.922 29.966H48.024V34.934H50.922ZM61.8812 28.4C63.5972 28.4 65.0192 29.012 66.1472 30.236C67.2872 31.448 67.8572 32.936 67.8572 34.7C67.8572 36.464 67.2872 37.958 66.1472 39.182C65.0192 40.394 63.5972 41 61.8812 41H56.9672V28.4H61.8812ZM61.8812 39.416C63.1652 39.416 64.2152 38.966 65.0312 38.066C65.8472 37.166 66.2552 36.044 66.2552 34.7C66.2552 33.356 65.8472 32.234 65.0312 31.334C64.2152 30.434 63.1652 29.984 61.8812 29.984H58.6412V39.416H61.8812ZM77.1411 29.984H71.5611V34.07H76.9071V35.654H71.5611V41H69.8871V28.4H77.1411V29.984ZM80.4323 39.146L79.2623 43.52H77.9123L78.6323 39.146H80.4323ZM91.645 33.566C92.605 33.746 93.391 34.16 94.003 34.808C94.615 35.456 94.921 36.278 94.921 37.274C94.921 38.498 94.501 39.464 93.661 40.172C92.821 40.88 91.801 41.234 90.601 41.234C89.641 41.234 88.789 41.018 88.045 40.586C87.301 40.142 86.773 39.506 86.461 38.678L87.865 37.85C88.237 39.014 89.149 39.596 90.601 39.596C91.381 39.596 92.017 39.392 92.509 38.984C93.001 38.576 93.247 38.006 93.247 37.274C93.247 36.542 93.001 35.972 92.509 35.564C92.017 35.144 91.381 34.934 90.601 34.934H90.169L89.503 33.908L92.419 29.966H86.821V28.4H94.381V29.876L91.645 33.566ZM97.4163 41.198C97.0923 41.198 96.8163 41.084 96.5883 40.856C96.3603 40.628 96.2463 40.352 96.2463 40.028C96.2463 39.704 96.3603 39.428 96.5883 39.2C96.8163 38.972 97.0923 38.858 97.4163 38.858C97.7523 38.858 98.0283 38.972 98.2443 39.2C98.4723 39.428 98.5863 39.704 98.5863 40.028C98.5863 40.352 98.4723 40.628 98.2443 40.856C98.0283 41.084 97.7523 41.198 97.4163 41.198ZM104.457 32.756C105.717 32.756 106.755 33.152 107.571 33.944C108.387 34.724 108.795 35.738 108.795 36.986C108.795 38.234 108.387 39.254 107.571 40.046C106.755 40.838 105.717 41.234 104.457 41.234C103.185 41.234 102.141 40.838 101.325 40.046C100.521 39.254 100.119 38.234 100.119 36.986C100.119 36.014 100.371 35.174 100.875 34.466L104.925 28.4H106.833L103.863 32.792C104.127 32.768 104.325 32.756 104.457 32.756ZM102.513 38.912C103.017 39.392 103.665 39.632 104.457 39.632C105.249 39.632 105.891 39.392 106.383 38.912C106.887 38.42 107.139 37.778 107.139 36.986C107.139 36.194 106.887 35.558 106.383 35.078C105.891 34.598 105.249 34.358 104.457 34.358C103.653 34.358 103.005 34.598 102.513 35.078C102.021 35.558 101.775 36.194 101.775 36.986C101.775 37.778 102.021 38.42 102.513 38.912ZM126.941 28.4V41H125.285V31.154L121.163 38.012H120.947L116.825 31.172V41H115.151V28.4H117.041L121.055 35.06L125.051 28.4H126.941ZM134.441 31.766C135.701 31.766 136.775 32.228 137.663 33.152C138.551 34.064 138.995 35.18 138.995 36.5C138.995 37.82 138.551 38.942 137.663 39.866C136.775 40.778 135.701 41.234 134.441 41.234C132.953 41.234 131.819 40.64 131.039 39.452V41H129.473V28.4H131.039V33.548C131.819 32.36 132.953 31.766 134.441 31.766ZM134.243 39.722C135.143 39.722 135.899 39.416 136.511 38.804C137.123 38.18 137.429 37.412 137.429 36.5C137.429 35.588 137.123 34.826 136.511 34.214C135.899 33.59 135.143 33.278 134.243 33.278C133.331 33.278 132.569 33.59 131.957 34.214C131.345 34.826 131.039 35.588 131.039 36.5C131.039 37.412 131.345 38.18 131.957 38.804C132.569 39.416 133.331 39.722 134.243 39.722Z" fill="black"/>
</svg>
