<svg width="20" height="20" fill="none" xmlns="http://www.w3.org/2000/svg"><path d="M10 1a9 9 0 100 18 9 9 0 000-18zM6.766 4.575c.185-.011.353.1.48.297l1.23 2.333a.677.677 0 01-.137.77l-.564.564a.276.276 0 00-.058.16c.216.837.872 1.608 1.45 2.14.579.53 1.2 1.248 2.007 1.419.1.028.222.038.294-.029l.655-.667c.226-.171.553-.254.794-.114h.01l2.221 1.31c.326.205.36.6.127.84l-1.53 1.517c-.226.232-.526.31-.817.31-1.29-.039-2.508-.671-3.508-1.322-1.642-1.194-3.149-2.676-4.095-4.467-.362-.75-.789-1.708-.748-2.546.004-.316.09-.624.311-.828l1.53-1.529a.598.598 0 01.348-.158z" fill="#154E3F"/></svg>