<svg width="76" height="76" fill="none" xmlns="http://www.w3.org/2000/svg"><path d="M0 38C0 17.013 17.013 0 38 0s38 17.013 38 38-17.013 38-38 38H0V38z" fill="#fff"/><path d="M27 56.333a.97.97 0 01-.51-.145 1.023 1.023 0 01-.359-.38 1.076 1.076 0 01-.131-.516v-5.209h-7a.98.98 0 01-.707-.305 1.064 1.064 0 01-.293-.736v-25c0-.277.105-.542.293-.737A.98.98 0 0119 23h38c.265 0 .52.11.707.305.188.195.293.46.293.737v25c0 .276-.105.54-.293.736a.98.98 0 01-.707.305H38.25l-10.77 6.125a.968.968 0 01-.48.125zM20 48h7c.265 0 .52.11.707.305.188.195.293.46.293.737v4.5l9.52-5.417A.968.968 0 0138 48h18V25.083H20V48z" fill="#000"/><path fill-rule="evenodd" clip-rule="evenodd" d="M50 33.417H26v-2.084h24v2.084zm0 7.291H26v-2.083h24v2.083z" fill="#000"/><path d="M27 56.333a.97.97 0 01-.51-.145 1.023 1.023 0 01-.359-.38 1.076 1.076 0 01-.131-.516v-5.209h-7a.98.98 0 01-.707-.305 1.064 1.064 0 01-.293-.736v-25c0-.277.105-.542.293-.737A.98.98 0 0119 23h38c.265 0 .52.11.707.305.188.195.293.46.293.737v25c0 .276-.105.54-.293.736a.98.98 0 01-.707.305H38.25l-10.77 6.125a.968.968 0 01-.48.125zM20 48h7c.265 0 .52.11.707.305.188.195.293.46.293.737v4.5l9.52-5.417A.968.968 0 0138 48h18V25.083H20V48z" fill="#000"/><path fill-rule="evenodd" clip-rule="evenodd" d="M50 33.417H26v-2.084h24v2.084zm0 7.291H26v-2.083h24v2.083z" fill="#000"/></svg>