<svg width="76" height="76" viewBox="0 0 76 76" fill="none" xmlns="http://www.w3.org/2000/svg">
<path d="M0 38C0 17.0132 17.0132 0 38 0C58.9868 0 76 17.0132 76 38C76 58.9868 58.9868 76 38 76H0V38Z" fill="white"/>
<path d="M27 56.3333C26.8205 56.3333 26.6444 56.2829 26.49 56.1875C26.3407 56.0953 26.217 55.9642 26.1311 55.8072C26.0452 55.6501 26 55.4724 26 55.2917V50.0833H19C18.7348 50.0833 18.4804 49.9736 18.2929 49.7782C18.1054 49.5829 18 49.3179 18 49.0417V24.0417C18 23.7654 18.1054 23.5004 18.2929 23.3051C18.4804 23.1097 18.7348 23 19 23H57C57.2652 23 57.5196 23.1097 57.7071 23.3051C57.8946 23.5004 58 23.7654 58 24.0417V49.0417C58 49.3179 57.8946 49.5829 57.7071 49.7782C57.5196 49.9736 57.2652 50.0833 57 50.0833H38.25L27.48 56.2083C27.3326 56.2912 27.1675 56.3342 27 56.3333ZM20 48H27C27.2652 48 27.5196 48.1097 27.7071 48.3051C27.8946 48.5004 28 48.7654 28 49.0417V53.5417L37.52 48.125C37.6674 48.0421 37.8325 47.9991 38 48H56V25.0833H20V48Z" fill="black"/>
<path fill-rule="evenodd" clip-rule="evenodd" d="M50 33.4167H26V31.3334H50V33.4167Z" fill="black"/>
<path fill-rule="evenodd" clip-rule="evenodd" d="M50 40.7083H26V38.625H50V40.7083Z" fill="black"/>
<path d="M27 56.3333C26.8205 56.3333 26.6444 56.2829 26.49 56.1875C26.3407 56.0953 26.217 55.9642 26.1311 55.8072C26.0452 55.6501 26 55.4724 26 55.2917V50.0833H19C18.7348 50.0833 18.4804 49.9736 18.2929 49.7782C18.1054 49.5829 18 49.3179 18 49.0417V24.0417C18 23.7654 18.1054 23.5004 18.2929 23.3051C18.4804 23.1097 18.7348 23 19 23H57C57.2652 23 57.5196 23.1097 57.7071 23.3051C57.8946 23.5004 58 23.7654 58 24.0417V49.0417C58 49.3179 57.8946 49.5829 57.7071 49.7782C57.5196 49.9736 57.2652 50.0833 57 50.0833H38.25L27.48 56.2083C27.3326 56.2912 27.1675 56.3342 27 56.3333ZM20 48H27C27.2652 48 27.5196 48.1097 27.7071 48.3051C27.8946 48.5004 28 48.7654 28 49.0417V53.5417L37.52 48.125C37.6674 48.0421 37.8325 47.9991 38 48H56V25.0833H20V48Z" fill="black"/>
<path fill-rule="evenodd" clip-rule="evenodd" d="M50 33.4167H26V31.3334H50V33.4167Z" fill="black"/>
<path fill-rule="evenodd" clip-rule="evenodd" d="M50 40.7083H26V38.625H50V40.7083Z" fill="black"/>
</svg>
