<svg width="20" height="21" viewBox="0 0 20 21" fill="none" xmlns="http://www.w3.org/2000/svg">
<path d="M19.1666 18.7077L14.0455 13.5866C15.2761 12.1092 15.8898 10.2142 15.7588 8.2959C15.6279 6.37756 14.7624 4.58356 13.3424 3.28709C11.9224 1.99062 10.0573 1.2915 8.13499 1.33518C6.21269 1.37886 4.38122 2.16197 3.02159 3.52159C1.66197 4.88122 0.87886 6.71269 0.835182 8.63499C0.791504 10.5573 1.49062 12.4224 2.78709 13.8424C4.08356 15.2624 5.87756 16.1279 7.7959 16.2588C9.71424 16.3898 11.6092 15.7761 13.0866 14.5455L18.2077 19.6666L19.1666 18.7077ZM2.21373 8.81676C2.21373 7.60969 2.57167 6.42973 3.24228 5.4261C3.91288 4.42246 4.86605 3.64022 5.98123 3.1783C7.09641 2.71637 8.32353 2.59551 9.5074 2.831C10.6913 3.06648 11.7787 3.64774 12.6322 4.50127C13.4858 5.35479 14.067 6.44224 14.3025 7.62612C14.538 8.80999 14.4171 10.0371 13.9552 11.1523C13.4933 12.2675 12.7111 13.2206 11.7074 13.8912C10.7038 14.5618 9.52382 14.9198 8.31676 14.9198C6.69868 14.918 5.1474 14.2744 4.00325 13.1303C2.8591 11.9861 2.21552 10.4348 2.21373 8.81676Z" fill="black"/>
</svg>
