<svg width="147" height="46" fill="none" xmlns="http://www.w3.org/2000/svg"><g opacity=".6"><rect x="1" y="5" width="25" height="38" rx="1" stroke="#000" stroke-width="2"/><path stroke="#000" stroke-width="2" d="M6 34h15M6 28h15"/><path d="M8.616 12.4c.565 0 1.04.184 1.424.552.384.368.576.837.576 1.408 0 .57-.192 1.04-.576 1.408-.384.368-.859.552-1.424.552h-.744V18H6.44v-5.6h2.176zm0 2.56a.53.53 0 00.4-.168.585.585 0 00.168-.432.558.558 0 00-.168-.424.53.53 0 00-.4-.168h-.744v1.192h.744zm4.838-2.56c.774 0 1.419.27 1.936.808.523.533.784 1.197.784 1.992 0 .795-.261 1.461-.784 2-.517.533-1.162.8-1.936.8h-2.28v-5.6h2.28zm0 4.216c.39 0 .707-.128.952-.384.246-.261.368-.605.368-1.032 0-.427-.122-.768-.368-1.024-.245-.261-.562-.392-.952-.392h-.808v2.832h.808zm6.824-2.832H18.27v.912h1.968v1.384H18.27V18h-1.432v-5.6h3.44v1.384z" fill="#000"/></g><path opacity=".6" d="M54.252 16.452c-.852 1.188-2.046 1.782-3.582 1.782s-2.73-.594-3.582-1.782c-.852-1.188-1.278-2.772-1.278-4.752s.426-3.564 1.278-4.752c.852-1.188 2.046-1.782 3.582-1.782s2.73.594 3.582 1.782c.852 1.188 1.278 2.772 1.278 4.752s-.426 3.564-1.278 4.752zm-5.94-1.134c.552.852 1.338 1.278 2.358 1.278s1.806-.426 2.358-1.278c.564-.852.846-2.058.846-3.618s-.282-2.766-.846-3.618c-.552-.864-1.338-1.296-2.358-1.296s-1.806.426-2.358 1.278c-.552.852-.828 2.064-.828 3.636 0 1.56.276 2.766.828 3.618zM59.55 5.4h1.44V18h-1.656V7.2l-2.682.792-.414-1.44L59.55 5.4zm5.03 12.798c-.324 0-.6-.114-.828-.342a1.128 1.128 0 01-.342-.828c0-.324.114-.6.342-.828.228-.228.504-.342.828-.342.336 0 .612.114.828.342.228.228.342.504.342.828 0 .324-.114.6-.342.828a1.09 1.09 0 01-.828.342zm10.906-1.746c-.852 1.188-2.046 1.782-3.582 1.782s-2.73-.594-3.582-1.782c-.852-1.188-1.278-2.772-1.278-4.752s.426-3.564 1.278-4.752c.852-1.188 2.046-1.782 3.582-1.782s2.73.594 3.582 1.782c.852 1.188 1.278 2.772 1.278 4.752s-.426 3.564-1.278 4.752zm-5.94-1.134c.552.852 1.338 1.278 2.358 1.278s1.806-.426 2.358-1.278c.564-.852.846-2.058.846-3.618s-.282-2.766-.846-3.618c-.552-.864-1.338-1.296-2.358-1.296s-1.806.426-2.358 1.278c-.552.852-.828 2.064-.828 3.636 0 1.56.276 2.766.828 3.618zm18.088-1.278v1.566h-1.53V18H84.43v-2.394h-6.426V14.04l4.518-8.64h1.8l-4.518 8.64h4.626v-3.564h1.674v3.564h1.53zm2.558 4.158c-.324 0-.6-.114-.828-.342a1.128 1.128 0 01-.342-.828c0-.324.114-.6.342-.828.228-.228.504-.342.828-.342.336 0 .612.114.828.342.228.228.342.504.342.828 0 .324-.114.6-.342.828a1.09 1.09 0 01-.828.342zM93.039 18v-1.368l4.446-4.536c1.188-1.188 1.782-2.208 1.782-3.06 0-.708-.216-1.26-.648-1.656-.432-.396-.96-.594-1.584-.594-1.188 0-2.052.564-2.592 1.692l-1.404-.828c.396-.816.942-1.434 1.638-1.854a4.501 4.501 0 012.34-.63c1.056 0 1.974.348 2.754 1.044.78.696 1.17 1.632 1.17 2.808 0 1.272-.75 2.658-2.25 4.158l-3.222 3.204h5.706V18h-8.136zm17.92-1.548c-.852 1.188-2.046 1.782-3.582 1.782s-2.73-.594-3.582-1.782c-.852-1.188-1.278-2.772-1.278-4.752s.426-3.564 1.278-4.752c.852-1.188 2.046-1.782 3.582-1.782s2.73.594 3.582 1.782c.852 1.188 1.278 2.772 1.278 4.752s-.426 3.564-1.278 4.752zm-5.94-1.134c.552.852 1.338 1.278 2.358 1.278s1.806-.426 2.358-1.278c.564-.852.846-2.058.846-3.618s-.282-2.766-.846-3.618c-.552-.864-1.338-1.296-2.358-1.296s-1.806.426-2.358 1.278c-.552.852-.828 2.064-.828 3.636 0 1.56.276 2.766.828 3.618zM113.464 18v-1.368l4.446-4.536c1.188-1.188 1.782-2.208 1.782-3.06 0-.708-.216-1.26-.648-1.656-.432-.396-.96-.594-1.584-.594-1.188 0-2.052.564-2.592 1.692l-1.404-.828c.396-.816.942-1.434 1.638-1.854a4.501 4.501 0 012.34-.63c1.056 0 1.974.348 2.754 1.044.78.696 1.17 1.632 1.17 2.808 0 1.272-.75 2.658-2.25 4.158l-3.222 3.204h5.706V18h-8.136zm9.493 0v-1.368l4.446-4.536c1.188-1.188 1.782-2.208 1.782-3.06 0-.708-.216-1.26-.648-1.656-.432-.396-.96-.594-1.584-.594-1.188 0-2.052.564-2.592 1.692l-1.404-.828c.396-.816.942-1.434 1.638-1.854a4.501 4.501 0 012.34-.63c1.056 0 1.974.348 2.754 1.044.78.696 1.17 1.632 1.17 2.808 0 1.272-.75 2.658-2.25 4.158l-3.222 3.204h5.706V18h-8.136zm20.436-9v1.512h-4.338V18h-1.566V9h5.904zm.728 9.198c-.324 0-.6-.114-.828-.342a1.128 1.128 0 01-.342-.828c0-.324.114-.6.342-.828.228-.228.504-.342.828-.342.336 0 .612.114.828.342.228.228.342.504.342.828 0 .324-.114.6-.342.828a1.09 1.09 0 01-.828.342zM50.922 28.4c1.164 0 2.13.39 2.898 1.17.78.768 1.17 1.728 1.17 2.88 0 1.14-.39 2.1-1.17 2.88-.768.78-1.734 1.17-2.898 1.17h-2.898V41H46.35V28.4h4.572zm0 6.534c.696 0 1.272-.234 1.728-.702.456-.48.684-1.074.684-1.782 0-.72-.228-1.314-.684-1.782-.456-.468-1.032-.702-1.728-.702h-2.898v4.968h2.898zm10.96-6.534c1.715 0 3.137.612 4.265 1.836 1.14 1.212 1.71 2.7 1.71 4.464 0 1.764-.57 3.258-1.71 4.482C65.02 40.394 63.597 41 61.881 41h-4.914V28.4h4.914zm0 11.016c1.283 0 2.333-.45 3.15-1.35.815-.9 1.223-2.022 1.223-3.366 0-1.344-.408-2.466-1.224-3.366-.816-.9-1.866-1.35-3.15-1.35h-3.24v9.432h3.24zm15.26-9.432h-5.58v4.086h5.345v1.584h-5.346V41h-1.674V28.4h7.254v1.584zm3.29 9.162l-1.17 4.374h-1.35l.72-4.374h1.8zm11.213-5.58c.96.18 1.746.594 2.358 1.242.612.648.918 1.47.918 2.466 0 1.224-.42 2.19-1.26 2.898-.84.708-1.86 1.062-3.06 1.062-.96 0-1.812-.216-2.556-.648a3.657 3.657 0 01-1.584-1.908l1.404-.828c.372 1.164 1.284 1.746 2.736 1.746.78 0 1.416-.204 1.908-.612.492-.408.738-.978.738-1.71s-.246-1.302-.738-1.71c-.492-.42-1.128-.63-1.908-.63h-.432l-.666-1.026 2.916-3.942h-5.598V28.4h7.56v1.476l-2.736 3.69zm5.771 7.632c-.324 0-.6-.114-.828-.342a1.128 1.128 0 01-.342-.828c0-.324.114-.6.342-.828.228-.228.504-.342.828-.342.336 0 .612.114.828.342.228.228.342.504.342.828 0 .324-.114.6-.342.828a1.09 1.09 0 01-.828.342zm7.041-8.442c1.26 0 2.298.396 3.114 1.188.816.78 1.224 1.794 1.224 3.042 0 1.248-.408 2.268-1.224 3.06-.816.792-1.854 1.188-3.114 1.188-1.272 0-2.316-.396-3.132-1.188-.804-.792-1.206-1.812-1.206-3.06 0-.972.252-1.812.756-2.52l4.05-6.066h1.908l-2.97 4.392c.264-.024.462-.036.594-.036zm-1.944 6.156c.504.48 1.152.72 1.944.72s1.434-.24 1.926-.72c.504-.492.756-1.134.756-1.926s-.252-1.428-.756-1.908c-.492-.48-1.134-.72-1.926-.72-.804 0-1.452.24-1.944.72s-.738 1.116-.738 1.908c0 .792.246 1.434.738 1.926zM126.941 28.4V41h-1.656v-9.846l-4.122 6.858h-.216l-4.122-6.84V41h-1.674V28.4h1.89l4.014 6.66 3.996-6.66h1.89zm7.5 3.366c1.26 0 2.334.462 3.222 1.386.888.912 1.332 2.028 1.332 3.348 0 1.32-.444 2.442-1.332 3.366-.888.912-1.962 1.368-3.222 1.368-1.488 0-2.622-.594-3.402-1.782V41h-1.566V28.4h1.566v5.148c.78-1.188 1.914-1.782 3.402-1.782zm-.198 7.956c.9 0 1.656-.306 2.268-.918.612-.624.918-1.392.918-2.304 0-.912-.306-1.674-.918-2.286-.612-.624-1.368-.936-2.268-.936-.912 0-1.674.312-2.286.936-.612.612-.918 1.374-.918 2.286 0 .912.306 1.68.918 2.304.612.612 1.374.918 2.286.918z" fill="#000"/></svg>