<svg width="134" height="24" fill="none" xmlns="http://www.w3.org/2000/svg"><rect width="5.919" height="26.61" rx="2.959" transform="scale(.95562 1.0425) rotate(45 9.408 22.713)" fill="url(#paint0_linear_506_5284)"/><ellipse cx="4.022" cy="4.319" rx="2.828" ry="3.085" fill="#004C92"/><ellipse cx="4.022" cy="19.608" rx="2.828" ry="3.085" fill="#004C92"/><ellipse cx="18.036" cy="4.319" rx="2.828" ry="3.085" fill="#004C92"/><ellipse cx="18.036" cy="19.608" rx="2.828" ry="3.085" fill="#004C92"/><path d="M29.476 22.584c-.408 0-.7-.163-.876-.488-.176-.34-.136-.704.122-1.088l4.499-6.574-4.234-6.195c-.285-.4-.34-.77-.163-1.11.176-.341.468-.511.875-.511s.774.244 1.1.732l3.623 5.397 3.583-5.397c.325-.488.698-.732 1.12-.732.406 0 .698.17.874.51.177.326.123.696-.162 1.11l-4.234 6.196 4.478 6.574c.258.384.298.747.122 1.088-.163.325-.455.488-.875.488-.407 0-.78-.244-1.12-.733l-3.806-5.684-3.787 5.684c-.339.489-.719.733-1.14.733zm13.132 0c-.637 0-.956-.4-.956-1.199v-8.86c0-.726.312-1.088.936-1.088.624 0 .936.362.936 1.088v6.928l4.987-7.284c.123-.192.272-.362.448-.51.177-.149.421-.223.733-.223.624 0 .937.4.937 1.2v8.86c0 .726-.306 1.088-.916 1.088-.638 0-.957-.363-.957-1.088V14.59l-4.987 7.284a2.45 2.45 0 01-.448.488c-.177.148-.414.222-.713.222zm11.008 0c-.61 0-.916-.355-.916-1.066v-8.882c0-.8.312-1.2.937-1.2.298 0 .529.082.692.245.163.163.298.348.407.555l3.257 6.218 3.236-6.218c.123-.222.265-.407.428-.555.163-.163.387-.244.672-.244.624 0 .936.4.936 1.199v8.882c0 .71-.305 1.066-.916 1.066-.597 0-.896-.355-.896-1.066v-6.44l-2.748 5.197a1.307 1.307 0 01-.264.355c-.109.104-.258.155-.448.155-.204 0-.36-.051-.468-.155a2.777 2.777 0 01-.245-.355l-2.768-5.197v6.44c0 .71-.299 1.066-.896 1.066zm12.68 0c-.638 0-.957-.4-.957-1.199v-8.86c0-.726.312-1.088.937-1.088.624 0 .936.362.936 1.088v6.928l4.987-7.284a2.22 2.22 0 01.448-.51c.176-.149.42-.223.733-.223.624 0 .936.4.936 1.2v8.86c0 .726-.305 1.088-.916 1.088-.638 0-.957-.363-.957-1.088V14.59l-4.987 7.284a2.45 2.45 0 01-.448.488c-.176.148-.413.222-.712.222zm11.13 0c-.692 0-1.038-.377-1.038-1.132v-8.839c0-.755.346-1.132 1.038-1.132.679 0 1.018.377 1.018 1.132v3.376h1.67l2.808-3.997c.19-.296.407-.46.652-.489.257-.03.481.03.671.178a.828.828 0 01.367.6c.054.251-.014.525-.204.821l-2.34 3.353c.325.163.624.415.895.755.285.326.577.777.875 1.355l1.344 2.487c.162.31.197.592.102.844a.996.996 0 01-.49.555.98.98 0 01-.712.089c-.244-.06-.454-.252-.63-.578l-1.486-2.775c-.313-.563-.618-.94-.917-1.133-.285-.207-.685-.31-1.2-.31h-1.405v3.708c0 .755-.34 1.132-1.018 1.132z" fill="#015193"/><path d="M91.995 22.429c-.76 0-1.14-.415-1.14-1.244V8.017c0-.83.38-1.244 1.14-1.244h7.796c.583 0 .875.304.875.91 0 .637-.292.955-.875.955h-6.9v4.864h4.193c1.506 0 2.68.377 3.521 1.132.855.74 1.283 1.843 1.283 3.309 0 1.466-.428 2.583-1.283 3.353-.841.755-2.015 1.133-3.521 1.133h-5.09zm.895-1.866h3.95c1.994 0 2.992-.866 2.992-2.598 0-1.732-.998-2.598-2.993-2.598H92.89v5.196zm13.578 2.066c-.692 0-1.31-.149-1.852-.445a3.546 3.546 0 01-1.303-1.199 3.179 3.179 0 01-.468-1.71c0-.799.183-1.428.549-1.887.38-.46.998-.792 1.853-1 .868-.207 2.035-.31 3.501-.31h.692V15.5c0-.844-.163-1.45-.489-1.82-.325-.37-.861-.556-1.608-.556-.434 0-.889.06-1.364.178a6.07 6.07 0 00-1.445.6c-.285.148-.522.17-.712.066a.815.815 0 01-.367-.489 1.085 1.085 0 01.021-.688c.081-.237.251-.414.509-.533a7.99 7.99 0 011.771-.644 6.714 6.714 0 011.648-.222c1.357 0 2.362.355 3.013 1.066.651.696.977 1.791.977 3.287v5.707c0 .755-.319 1.132-.957 1.132-.651 0-.977-.377-.977-1.132v-.822a3.108 3.108 0 01-1.14 1.466c-.515.355-1.133.533-1.852.533zm.407-1.6c.733 0 1.344-.28 1.832-.843.489-.563.733-1.273.733-2.132v-.6h-.672c-.99 0-1.771.052-2.341.156-.556.104-.956.281-1.201.533-.23.237-.346.57-.346 1 0 .562.177 1.02.53 1.376.352.34.841.51 1.465.51zm7.589 1.555c-.692 0-1.038-.377-1.038-1.132v-8.883c0-.755.346-1.133 1.038-1.133.679 0 1.018.378 1.018 1.133v3.398h4.947v-3.398c0-.755.339-1.133 1.018-1.133.692 0 1.038.378 1.038 1.133v8.883c0 .755-.346 1.132-1.038 1.132-.679 0-1.018-.377-1.018-1.132v-3.709h-4.947v3.709c0 .755-.339 1.132-1.018 1.132zm11.109 0c-.692 0-1.038-.377-1.038-1.132v-8.839c0-.755.346-1.132 1.038-1.132.678 0 1.018.377 1.018 1.132v3.376h1.669l2.809-3.997c.19-.296.407-.46.651-.489.258-.03.482.03.672.178a.824.824 0 01.366.6c.055.251-.013.525-.203.821l-2.341 3.353c.326.163.624.415.896.755.285.326.576.777.875 1.355l1.343 2.487c.163.31.197.592.102.844a.997.997 0 01-.488.555.982.982 0 01-.713.089c-.244-.06-.454-.252-.631-.578l-1.486-2.775c-.312-.563-.617-.94-.916-1.133-.285-.207-.685-.31-1.201-.31h-1.404v3.708c0 .755-.34 1.132-1.018 1.132z" fill="#12D1C9"/><defs><linearGradient id="paint0_linear_506_5284" x1="2.959" y1="0" x2="2.959" y2="26.61" gradientUnits="userSpaceOnUse"><stop stop-color="#0478E2"/><stop offset="1" stop-color="#16EDC0"/></linearGradient></defs></svg>