<svg width="20" height="20" viewBox="0 0 20 20" fill="none" xmlns="http://www.w3.org/2000/svg">
<path d="M10 1C5.02943 1 1 5.02943 1 10C1 14.9706 5.02943 19 10 19C14.9706 19 19 14.9706 19 10C19 5.02943 14.9706 1 10 1ZM10 4.0487C12.4778 4.0487 14.4868 6.05776 14.4868 8.53552C14.4868 9.28607 14.2811 10.2769 13.8584 10.8371L10 15.9513L6.14159 10.8372C5.67616 10.2203 5.51317 9.36418 5.51317 8.53555C5.51318 6.05776 7.52222 4.0487 10 4.0487ZM10 6.64807C8.95745 6.64807 8.11255 7.49298 8.11255 8.53552C8.11255 9.57806 8.95745 10.423 10 10.423C11.0425 10.423 11.8875 9.57806 11.8875 8.53552C11.8875 7.49298 11.0425 6.64807 10 6.64807Z" fill="#154E3F"/>
</svg>
