<svg width="20" height="20" viewBox="0 0 20 20" fill="none" xmlns="http://www.w3.org/2000/svg">
<path d="M10 1C5.02943 1 1 5.02943 1 10C1 14.9706 5.02943 19 10 19C14.9706 19 19 14.9706 19 10C19 5.02943 14.9706 1 10 1ZM6.76562 4.57495C6.95106 4.56401 7.11866 4.67485 7.24573 4.87158L8.47619 7.20506C8.60575 7.48157 8.53213 7.77765 8.33887 7.97521L7.77527 8.53881C7.74049 8.58647 7.7176 8.64016 7.71704 8.6992C7.93318 9.53583 8.5888 10.3075 9.16726 10.8382C9.74569 11.3689 10.3674 12.0875 11.1744 12.2577C11.2742 12.2855 11.3964 12.2955 11.4678 12.2291L12.1226 11.5623C12.3486 11.391 12.6755 11.3079 12.9169 11.448H12.9278L15.1482 12.7587C15.4741 12.963 15.5078 13.3578 15.2745 13.598L13.7452 15.1152C13.5194 15.3468 13.2194 15.4247 12.9279 15.425C11.6387 15.3864 10.4205 14.7537 9.41995 14.1034C7.7776 12.9086 6.2711 11.4267 5.32533 9.63636C4.96259 8.88561 4.53649 7.9277 4.57716 7.08975C4.58079 6.7745 4.66607 6.46567 4.88807 6.26248L6.41737 4.73318C6.5365 4.63181 6.65436 4.58152 6.76562 4.57495Z" fill="#154E3F"/>
</svg>
