<svg width="134" height="24" viewBox="0 0 134 24" fill="none" xmlns="http://www.w3.org/2000/svg">
<rect width="5.91854" height="26.6097" rx="2.95927" transform="matrix(0.675725 0.737154 -0.675725 0.737154 17.9807 0)" fill="url(#paint0_linear_506_5284)"/>
<ellipse cx="4.02203" cy="4.31939" rx="2.82793" ry="3.08502" fill="#004C92"/>
<ellipse cx="4.02202" cy="19.6075" rx="2.82793" ry="3.08502" fill="#004C92"/>
<ellipse cx="18.0359" cy="4.31939" rx="2.82793" ry="3.08502" fill="#004C92"/>
<ellipse cx="18.0359" cy="19.6075" rx="2.82794" ry="3.08502" fill="#004C92"/>
<path d="M29.4755 22.5842C29.0684 22.5842 28.7766 22.4213 28.6002 22.0956C28.4238 21.7551 28.4645 21.3924 28.7223 21.0075L33.221 14.4344L28.9869 8.23875C28.702 7.83903 28.6477 7.46893 28.8241 7.12843C29.0005 6.78793 29.2923 6.61768 29.6994 6.61768C30.1065 6.61768 30.4729 6.86195 30.7986 7.35049L34.422 12.7467L38.0046 7.35049C38.3303 6.86195 38.7035 6.61768 39.1242 6.61768C39.5313 6.61768 39.8231 6.78793 39.9995 7.12843C40.1759 7.45412 40.1217 7.82423 39.8367 8.23875L35.6026 14.4344L40.081 21.0075C40.3388 21.3924 40.3795 21.7551 40.2031 22.0956C40.0402 22.4213 39.7485 22.5842 39.3278 22.5842C38.9207 22.5842 38.5475 22.3399 38.2082 21.8513L34.4016 16.1665L30.6154 21.8513C30.2762 22.3399 29.8962 22.5842 29.4755 22.5842Z" fill="#015193"/>
<path d="M42.6083 22.5842C41.9705 22.5842 41.6515 22.1844 41.6515 21.385V12.5246C41.6515 11.7992 41.9637 11.4365 42.5879 11.4365C43.2122 11.4365 43.5243 11.7992 43.5243 12.5246V19.453L48.5115 12.1693C48.6336 11.9768 48.7829 11.8066 48.9593 11.6586C49.1358 11.5105 49.38 11.4365 49.6922 11.4365C50.3164 11.4365 50.6285 11.8362 50.6285 12.6356V21.496C50.6285 22.2215 50.3232 22.5842 49.7125 22.5842C49.0747 22.5842 48.7558 22.2215 48.7558 21.496V14.5898L43.7686 21.8736C43.6464 22.0512 43.4972 22.2141 43.3207 22.3621C43.1443 22.5101 42.9068 22.5842 42.6083 22.5842Z" fill="#015193"/>
<path d="M53.6162 22.5842C53.0056 22.5842 52.7002 22.2289 52.7002 21.5183V12.6356C52.7002 11.8362 53.0124 11.4365 53.6366 11.4365C53.9352 11.4365 54.1659 11.5179 54.3287 11.6808C54.4916 11.8436 54.6273 12.0287 54.7358 12.2359L57.9928 18.4538L61.2294 12.2359C61.3515 12.0139 61.494 11.8288 61.6569 11.6808C61.8197 11.5179 62.0436 11.4365 62.3286 11.4365C62.9529 11.4365 63.265 11.8362 63.265 12.6356V21.5183C63.265 22.2289 62.9596 22.5842 62.349 22.5842C61.7519 22.5842 61.4533 22.2289 61.4533 21.5183V15.0784L58.7052 20.2747C58.6374 20.4079 58.5492 20.5264 58.4406 20.63C58.3321 20.7336 58.1828 20.7854 57.9928 20.7854C57.7892 20.7854 57.6332 20.7336 57.5246 20.63C57.4296 20.5116 57.3482 20.3931 57.2803 20.2747L54.5119 15.0784V21.5183C54.5119 22.2289 54.2134 22.5842 53.6162 22.5842Z" fill="#015193"/>
<path d="M66.296 22.5842C65.6581 22.5842 65.3392 22.1844 65.3392 21.385V12.5246C65.3392 11.7992 65.6514 11.4365 66.2756 11.4365C66.8999 11.4365 67.212 11.7992 67.212 12.5246V19.453L72.1992 12.1693C72.3213 11.9768 72.4706 11.8066 72.647 11.6586C72.8234 11.5105 73.0677 11.4365 73.3798 11.4365C74.0041 11.4365 74.3162 11.8362 74.3162 12.6356V21.496C74.3162 22.2215 74.0109 22.5842 73.4002 22.5842C72.7624 22.5842 72.4435 22.2215 72.4435 21.496V14.5898L67.4562 21.8736C67.3341 22.0512 67.1848 22.2141 67.0084 22.3621C66.832 22.5101 66.5945 22.5842 66.296 22.5842Z" fill="#015193"/>
<path d="M77.4261 22.5842C76.734 22.5842 76.3879 22.2067 76.3879 21.4516V12.6134C76.3879 11.8584 76.734 11.4809 77.4261 11.4809C78.1046 11.4809 78.4439 11.8584 78.4439 12.6134V15.9888H80.1131L82.9222 11.9917C83.1122 11.6956 83.3293 11.5327 83.5736 11.5031C83.8314 11.4735 84.0553 11.5327 84.2453 11.6808C84.4489 11.814 84.571 12.0139 84.6117 12.2803C84.666 12.532 84.5982 12.8059 84.4082 13.102L82.0672 16.4552C82.3929 16.618 82.6915 16.8697 82.9629 17.2102C83.2479 17.5359 83.5397 17.9874 83.8382 18.5648L85.1817 21.0519C85.3445 21.3628 85.3785 21.6441 85.2835 21.8958C85.1885 22.1474 85.0256 22.3325 84.7949 22.4509C84.5778 22.5694 84.3403 22.599 84.0825 22.5397C83.8382 22.4805 83.6279 22.2881 83.4514 21.9624L81.9655 19.1866C81.6533 18.624 81.348 18.2465 81.0494 18.054C80.7645 17.8468 80.3641 17.7431 79.8484 17.7431H78.4439V21.4516C78.4439 22.2067 78.1046 22.5842 77.4261 22.5842Z" fill="#015193"/>
<path d="M91.9946 22.4287C91.2346 22.4287 90.8547 22.0142 90.8547 21.1852V8.01669C90.8547 7.18764 91.2346 6.77312 91.9946 6.77312H99.7909C100.374 6.77312 100.666 7.07661 100.666 7.68359C100.666 8.32018 100.374 8.63847 99.7909 8.63847H92.8903V13.5017H97.0836C98.5899 13.5017 99.7638 13.8792 100.605 14.6342C101.46 15.3744 101.888 16.4774 101.888 17.943C101.888 19.4086 101.46 20.5264 100.605 21.2962C99.7638 22.0512 98.5899 22.4287 97.0836 22.4287H91.9946ZM92.8903 20.5634H96.8393C98.8342 20.5634 99.8316 19.6973 99.8316 17.9652C99.8316 16.2331 98.8342 15.367 96.8393 15.367H92.8903V20.5634Z" fill="#12D1C9"/>
<path d="M106.468 22.6286C105.776 22.6286 105.158 22.4805 104.616 22.1844C104.073 21.8884 103.639 21.4886 103.313 20.9853C103.001 20.4819 102.845 19.912 102.845 19.2754C102.845 18.476 103.028 17.8468 103.394 17.3878C103.774 16.9289 104.392 16.5958 105.247 16.3885C106.115 16.1813 107.282 16.0777 108.748 16.0777H109.44V15.5003C109.44 14.6564 109.277 14.0495 108.951 13.6793C108.626 13.3092 108.09 13.1242 107.343 13.1242C106.909 13.1242 106.454 13.1834 105.979 13.3018C105.518 13.4203 105.036 13.6201 104.534 13.9014C104.249 14.0495 104.012 14.0717 103.822 13.968C103.645 13.8644 103.523 13.7016 103.455 13.4795C103.387 13.2574 103.394 13.028 103.476 12.7911C103.557 12.5542 103.727 12.3766 103.985 12.2581C104.582 11.962 105.172 11.7474 105.756 11.6141C106.339 11.4661 106.889 11.3921 107.404 11.3921C108.761 11.3921 109.766 11.7474 110.417 12.458C111.068 13.1538 111.394 14.2493 111.394 15.7446V21.4516C111.394 22.2067 111.075 22.5842 110.437 22.5842C109.786 22.5842 109.46 22.2067 109.46 21.4516V20.63C109.216 21.2518 108.836 21.7403 108.32 22.0956C107.805 22.4509 107.187 22.6286 106.468 22.6286ZM106.875 21.0297C107.608 21.0297 108.219 20.7484 108.707 20.1859C109.196 19.6233 109.44 18.9127 109.44 18.054V17.4545H108.768C107.778 17.4545 106.997 17.5063 106.427 17.6099C105.871 17.7135 105.471 17.8912 105.226 18.1429C104.996 18.3797 104.88 18.7128 104.88 19.1422C104.88 19.7047 105.057 20.1637 105.41 20.519C105.762 20.8595 106.251 21.0297 106.875 21.0297Z" fill="#12D1C9"/>
<path d="M114.464 22.5842C113.772 22.5842 113.426 22.2067 113.426 21.4516V12.569C113.426 11.814 113.772 11.4365 114.464 11.4365C115.143 11.4365 115.482 11.814 115.482 12.569V15.9666H120.429V12.569C120.429 11.814 120.768 11.4365 121.447 11.4365C122.139 11.4365 122.485 11.814 122.485 12.569V21.4516C122.485 22.2067 122.139 22.5842 121.447 22.5842C120.768 22.5842 120.429 22.2067 120.429 21.4516V17.7431H115.482V21.4516C115.482 22.2067 115.143 22.5842 114.464 22.5842Z" fill="#12D1C9"/>
<path d="M125.573 22.5842C124.881 22.5842 124.535 22.2067 124.535 21.4516V12.6134C124.535 11.8584 124.881 11.4809 125.573 11.4809C126.251 11.4809 126.591 11.8584 126.591 12.6134V15.9888H128.26L131.069 11.9917C131.259 11.6956 131.476 11.5327 131.72 11.5031C131.978 11.4735 132.202 11.5327 132.392 11.6808C132.596 11.814 132.718 12.0139 132.758 12.2803C132.813 12.532 132.745 12.8059 132.555 13.102L130.214 16.4552C130.54 16.618 130.838 16.8697 131.11 17.2102C131.395 17.5359 131.686 17.9874 131.985 18.5648L133.328 21.0519C133.491 21.3628 133.525 21.6441 133.43 21.8958C133.335 22.1474 133.172 22.3325 132.942 22.4509C132.724 22.5694 132.487 22.599 132.229 22.5397C131.985 22.4805 131.775 22.2881 131.598 21.9624L130.112 19.1866C129.8 18.624 129.495 18.2465 129.196 18.054C128.911 17.8468 128.511 17.7431 127.995 17.7431H126.591V21.4516C126.591 22.2067 126.251 22.5842 125.573 22.5842Z" fill="#12D1C9"/>
<defs>
<linearGradient id="paint0_linear_506_5284" x1="2.95927" y1="0" x2="2.95927" y2="26.6097" gradientUnits="userSpaceOnUse">
<stop stop-color="#0478E2"/>
<stop offset="1" stop-color="#16EDC0"/>
</linearGradient>
</defs>
</svg>
